HIERARCHY
ROOT Hips
{
  OFFSET 90.7885 88.945 -76.2838
  CHANNELS 6 Xposition Yposition Zposition Zrotation Xrotation Yrotation
  JOINT LeftUpLeg
  {
    OFFSET 8.64259 1.95398 -2.38835
    CHANNELS 3 Zrotation Xrotation Yrotation
    JOINT LeftLeg
    {
      OFFSET 43.7702 0 0
      CHANNELS 3 Zrotation Xrotation Yrotation
      JOINT LeftFoot
      {
        OFFSET 40.6238 0 0
        CHANNELS 3 Zrotation Xrotation Yrotation
        JOINT LeftToeBase
        {
          OFFSET 12.7242 0 0
          CHANNELS 3 Zrotation Xrotation Yrotation
          End Site
          {
            OFFSET 0 0 0
          }
        }
      }
    }
  }
  JOINT RightUpLeg
  {
    OFFSET -8.2249 1.95398 -2.59336
    CHANNELS 3 Zrotation Xrotation Yrotation
    JOINT RightLeg
    {
      OFFSET 43.5653 0 0
      CHANNELS 3 Zrotation Xrotation Yrotation
      JOINT RightFoot
      {
        OFFSET 40.6238 0 0
        CHANNELS 3 Zrotation Xrotation Yrotation
        JOINT RightToeBase
        {
          OFFSET 12.7242 0 0
          CHANNELS 3 Zrotation Xrotation Yrotation
          End Site
          {
            OFFSET 0 0 0
          }
        }
      }
    }
  }
  JOINT Spine
  {
    OFFSET 0.165834 0.87714 6.61349
    CHANNELS 3 Zrotation Xrotation Yrotation
    JOINT Spine1
    {
      OFFSET 7.38963 1.71661e-005 0
      CHANNELS 3 Zrotation Xrotation Yrotation
      JOINT Spine2
      {
        OFFSET 11.9445 1.14441e-005 0
        CHANNELS 3 Zrotation Xrotation Yrotation
        JOINT Spine3
        {
          OFFSET 14.7254 4.19617e-005 0
          CHANNELS 3 Zrotation Xrotation Yrotation
          JOINT Spine4
          {
            OFFSET 10.9679 0 0
            CHANNELS 3 Zrotation Xrotation Yrotation
            JOINT RightShoulder
            {
              OFFSET 2.46616 -1.6653 3.69651
              CHANNELS 3 Zrotation Xrotation Yrotation
              JOINT RightArm
              {
                OFFSET 13.0012 0 0
                CHANNELS 3 Zrotation Xrotation Yrotation
                JOINT RightForeArm
                {
                  OFFSET 28.7848 1.52588e-005 0
                  CHANNELS 3 Zrotation Xrotation Yrotation
                  JOINT RightHand
                  {
                    OFFSET 26.5688 1.52588e-005 0
                    CHANNELS 3 Zrotation Xrotation Yrotation
                    End Site
                    {
                      OFFSET 0 0 0
                    }
                  }
                }
              }
            }
            JOINT LeftShoulder
            {
              OFFSET 2.38034 -1.29275 -3.7523
              CHANNELS 3 Zrotation Xrotation Yrotation
              JOINT LeftArm
              {
                OFFSET 16.3182 6.10352e-005 0
                CHANNELS 3 Zrotation Xrotation Yrotation
                JOINT LeftForeArm
                {
                  OFFSET 27.0901 0 0
                  CHANNELS 3 Zrotation Xrotation Yrotation
                  JOINT LeftHand
                  {
                    OFFSET 24.5451 1.52588e-005 0
                    CHANNELS 3 Zrotation Xrotation Yrotation
                    End Site
                    {
                      OFFSET 0 0 0
                    }
                  }
                }
              }
            }
            JOINT Neck
            {
              OFFSET 5.0226 -0.0266342 0
              CHANNELS 3 Zrotation Xrotation Yrotation
              JOINT Head
              {
                OFFSET 6.69363 2.86102e-005 0
                CHANNELS 3 Zrotation Xrotation Yrotation
                End Site
                {
                  OFFSET 0 0 0
                }
              }
            }
          }
        }
      }
    }
  }
}
MOTION
Frames:	7
Frame Time:	0.0416667
5.69105 67.5958 -29.4925 82.3494 46.1004 95.6361 -156.889 63.7326 78.8761 -104.14 9.33398 3.38477 98.3683 16.0637 -0.947754 28.9888 2.98107 -4.41817 175.891 43.3076 93.4064 -101.26 5.248 -0.836127 119.93 -23.9378 8.58988 28.337 0.71441 -1.55519 0.331882 10.5475 -89.7114 5.77658 0.783947 0.546181 -5.89424 0.807204 0.51114 -28.4296 0.583561 0.756541 -8.417 0.583552 0.756526 89.2408 -17.8737 -114.258 4.77436 17.1298 -45.3194 -29.9221 -28.1245 -60.6666 -50.3575 -1.37897 -7.92848 -91.95 -29.9188 69.5878 -4.69619 -7.38772 -79.867 43.8499 39.0363 -49.3608 32.8405 2.84852 4.87311 25.8359 -0.224967 -2.11233 -2.91877 0.538555 1.31806 
10.9689 70.931 -34.9304 78.6641 46.9542 97.5796 -160.829 56.1545 83.2429 -99.2406 8.7603 2.68555 103.416 17.1221 -4.19405 31.5288 2.60026 -4.51903 175.727 40.8258 93.7735 -99.6569 0.520947 -0.988815 102.541 -20.9636 -2.15082 39.4999 -2.29532 3.93848 0.412557 10.1872 -89.6113 6.49575 0.989204 0.729578 -5.175 1.02038 0.685327 -27.7103 0.724219 0.993141 -7.69768 0.72423 0.993143 89.6104 -17.1256 -113.826 8.33805 22.6958 -42.8856 -31.34 -26.2893 -66.6756 -52.3485 -2.11421 -6.03992 -91.5292 -29.9971 70.4023 -3.1802 -9.00699 -82.6501 49.993 35.939 -57.0268 30.8715 2.03322 2.765 25.669 -1.18483 -2.89907 -1.78775 -0.0863956 1.35185 
16.9039 74.4498 -40.838 77.2444 47.5377 98.328 -164 46.3293 87.415 -92.3379 9.2801 1.75917 105.336 18.0641 -4.08644 35.8493 1.87319 -4.55661 177.509 41.4943 93.675 -101.503 -3.94898 -1.18362 80.636 -10.5501 -4.70582 37.6045 -3.56209 7.69491 0.299331 10.0057 -89.537 6.8585 0.795912 0.879613 -4.81247 0.83386 0.843724 -27.3462 0.494761 1.07813 -7.33353 0.494759 1.07812 89.1677 -18.2948 -114.178 9.82556 23.8336 -37.5308 -31.1915 -21.5537 -73.263 -52.422 -0.757026 -8.61496 -90.957 -31.7275 72.1208 2.49794 -11.3526 -83.1542 50.1011 29.7863 -60.7935 32.0144 1.89073 2.01738 27.0008 -1.29781 -3.78006 -2.21625 0.169006 0.647893 
23.2528 77.7933 -47.1297 75.3745 47.9583 100.404 -166.015 37.6582 91.4195 -84.7253 12.0023 1.01087 101.581 17.617 -1.60997 43.2828 1.79169 -6.73999 179.241 43.3446 94.3065 -102.357 -9.26377 -1.31216 75.257 -8.16002 -5.2268 18.5461 -3.24977 8.22221 0.0929438 9.72748 -89.5212 7.41625 0.393099 0.925047 -4.25494 0.433432 0.906842 -26.7875 0.0969214 1.00042 -6.77487 0.0969274 1.00041 87.6993 -22.9276 -114.818 8.60294 18.0246 -26.1843 -39.2589 -15.122 -86.131 -49.6784 -1.66927 -7.2403 -90.3623 -30.6668 72.857 6.3836 -13.7557 -82.7162 53.2322 24.6834 -66.046 30.2843 2.06577 2.95768 26.5592 -1.80507 -7.59377 -1.25114 1.08194 2.23777 
30.0562 80.6228 -53.5697 71.5732 48.759 103.372 -167.441 29.731 94.0678 -75.4433 14.7094 0.0557058 96.9545 16.3655 -0.0251992 48.5209 1.37622 -7.84183 178.089 46.511 95.8418 -98.4379 -3.2921 -1.16697 83.6945 -12.2001 -4.8523 23.2479 -2.65264 6.69795 -0.245326 9.27067 -89.576 8.33293 -0.302722 0.85653 -3.33826 -0.264737 0.869016 -25.872 -0.546154 0.725956 -5.85933 -0.546141 0.725961 87.5388 -27.0725 -112.978 10.792 3.77687 -13.3388 -41.5736 -5.90271 -91.6313 -43.4979 -0.665989 -9.91886 -89.343 -28.6251 74.1038 6.2866 -15.1046 -84.0299 57.8265 20.4225 -71.6731 30.3582 2.0809 3.01493 26.8335 -1.75621 -8.60628 -1.86251 1.5154 2.73864 
36.9707 83.3268 -60.8928 70.6987 48.049 106.08 -167.804 19.4105 98.2226 -63.3967 16.4475 -0.993012 89.9557 14.0197 2.57445 55.3157 1.45374 -11.1231 177.206 50.6606 98.2123 -90.7394 -0.569736 -0.854656 87.5654 -13.6748 -2.72576 21.2316 -1.43646 4.38084 -0.368507 9.00775 -89.9736 8.86078 -0.723253 0.0994537 -2.80995 -0.718205 0.131179 -25.3469 -0.719722 -0.122529 -5.33426 -0.71971 -0.122526 88.9456 -26.621 -110.312 20.7185 -13.7897 1.46542 -43.3278 -0.176005 -90.3142 -43.4959 -0.383657 -10.4415 -88.4635 -27.0988 75.3236 5.13017 -15.8001 -85.3519 59.0784 15.8554 -74.3855 27.3124 1.23539 0.648738 28.8621 -0.417881 -5.92047 -3.96652 1.87724 1.13358 
44.2947 85.8371 -68.9592 71.9259 46.845 106.895 -167.356 7.0671 101.334 -48.3721 19.7915 -1.57976 78.0487 9.09929 5.35145 64.2257 0.645196 -14.8261 176.71 53.9422 99.4596 -79.2536 -3.48471 -0.500915 89.1926 -14.8315 -3.37456 19.9055 -2.31719 6.26904 -0.425517 8.91351 -90.4417 9.04157 -1.04597 -0.800815 -2.62918 -1.0802 -0.754009 -25.1643 -0.756964 -1.07814 -5.15161 -0.756949 -1.07814 89.1965 -24.677 -110.692 36.4701 -19.6472 18.9541 -39.7361 -4.1584 -84.1465 -46.176 0.685253 -12.1882 -88.657 -27.6845 75.1361 4.7586 -14.9685 -85.2584 59.0875 14.356 -75.3578 27.6416 1.83188 2.79818 32.0475 1.9035 -2.02162 -7.35451 2.66814 -0.208056 
